<?xml version="1.0" standalone="no"?>
<!DOCTYPE svg PUBLIC "-//W3C//DTD SVG 20010904//EN"
 "http://www.w3.org/TR/2001/REC-SVG-20010904/DTD/svg10.dtd">
<svg version="1.0" xmlns="http://www.w3.org/2000/svg"
 width="504.000000pt" height="360.000000pt" viewBox="0 0 504.000000 360.000000"
 preserveAspectRatio="xMidYMid meet">
<metadata>
Created by potrace 1.15, written by Peter Selinger 2001-2017
</metadata>
<g transform="translate(0.000000,360.000000) scale(0.100000,-0.100000)"
fill="#000000" stroke="none">
<path d="M2320 2766 c-102 -73 -207 -153 -235 -178 -27 -25 -55 -43 -62 -41
-6 2 -14 -1 -18 -6 -3 -7 0 -8 9 -5 25 10 19 -3 -25 -51 -22 -24 -46 -42 -53
-39 -8 3 -16 -2 -20 -12 -5 -14 -4 -15 9 -4 26 22 16 -4 -16 -39 l-31 -34
-104 104 c-57 57 -106 101 -108 98 -8 -7 -146 -372 -146 -384 0 -6 34 -64 75
-129 l74 -118 135 -63 c114 -54 147 -65 223 -74 116 -14 109 -16 126 22 20 42
35 261 18 271 -15 10 -14 22 4 40 23 22 37 185 19 207 -31 35 1 91 43 75 9 -4
35 5 60 20 35 20 43 29 38 45 -16 48 47 87 93 58 14 -9 36 0 117 49 91 53 100
62 105 93 7 46 49 68 86 45 13 -9 24 -23 24 -31 0 -12 20 -15 117 -15 65 0
113 4 107 9 -6 6 -362 170 -474 219 -3 1 -89 -58 -190 -132z"/>
<path d="M2751 2627 c-11 -20 -9 -32 12 -79 24 -54 48 -75 70 -61 7 4 44 35
84 70 95 85 92 93 -46 93 -102 0 -108 -1 -120 -23z"/>
<path d="M2556 2561 c-82 -49 -101 -65 -111 -93 -11 -34 -10 -37 44 -106 31
-39 63 -71 72 -72 11 0 28 40 63 153 27 83 49 156 50 161 3 22 -26 11 -118
-43z"/>
<path d="M2695 2598 c-30 -87 -95 -302 -91 -305 2 -2 40 28 85 67 94 83 96 92
51 188 -30 63 -37 72 -45 50z"/>
<path d="M2921 2535 c-102 -89 -107 -102 -73 -171 16 -34 32 -54 41 -52 12 2
86 174 117 271 9 29 -8 19 -85 -48z"/>
<path d="M3002 2513 c-86 -222 -82 -209 -62 -228 16 -14 30 -16 84 -11 90 10
95 25 61 171 -34 142 -35 145 -45 145 -5 0 -22 -35 -38 -77z"/>
<path d="M3096 2489 c14 -57 28 -116 31 -131 3 -16 11 -28 18 -28 7 0 18 -7
25 -15 15 -19 76 -20 83 -2 4 11 -140 237 -173 271 -4 4 3 -38 16 -95z"/>
<path d="M2303 2407 c-56 -39 -51 -66 35 -190 41 -59 77 -106 79 -103 9 9 -30
301 -41 308 -18 12 -39 8 -73 -15z"/>
<path d="M2410 2408 c0 -7 7 -75 16 -150 12 -92 22 -139 30 -142 20 -8 76 79
78 122 2 32 -6 48 -57 110 -32 39 -60 72 -63 72 -2 0 -4 -6 -4 -12z"/>
<path d="M2705 2348 c-44 -39 -81 -75 -83 -80 -2 -4 44 -8 102 -8 101 0 107 1
117 23 8 18 5 34 -16 80 -15 31 -30 57 -33 57 -4 -1 -43 -33 -87 -72z"/>
<path d="M2226 2279 c-14 -112 -13 -136 3 -156 20 -25 152 -58 163 -40 6 10
-102 177 -143 221 -17 18 -18 17 -23 -25z"/>
<path d="M2931 2204 c2 -5 24 -49 49 -97 l45 -87 55 7 c30 3 57 7 58 9 2 1 1
16 -3 33 -5 24 -19 37 -73 67 -37 20 -82 46 -101 57 -19 11 -32 16 -30 11z"/>
<path d="M2595 2128 c14 -170 17 -198 23 -198 8 1 105 125 111 141 4 12 -116
129 -131 129 -5 0 -7 -32 -3 -72z"/>
<path d="M2725 1924 c-102 -50 -104 -60 -18 -146 l71 -70 26 109 c14 60 26
117 26 126 0 25 -26 20 -105 -19z"/>
<path d="M540 1330 l0 -30 65 0 65 0 0 -123 0 -123 30 -29 30 -29 0 152 0 152
65 0 65 0 0 30 0 30 -160 0 -160 0 0 -30z"/>
<path d="M900 1180 l0 -180 128 0 128 0 29 30 28 29 -124 3 -124 3 -3 118 -3
117 97 0 c81 0 100 3 125 21 16 11 29 25 29 30 0 5 -66 9 -155 9 l-155 0 0
-180z"/>
<path d="M1250 1207 l0 -153 30 -29 30 -29 0 182 0 182 -30 0 -30 0 0 -153z"/>
<path d="M1435 1270 l-90 -90 90 -90 c79 -79 94 -90 125 -90 l35 0 -90 90 -90
90 90 90 90 90 -35 0 c-31 0 -46 -11 -125 -90z"/>
<path d="M1734 1341 c-100 -45 -133 -167 -71 -261 78 -117 297 -104 363 22 18
35 18 121 0 156 -19 36 -65 78 -99 91 -45 17 -147 13 -193 -8z m186 -56 c56
-29 77 -109 43 -166 -51 -86 -212 -77 -257 15 -17 36 -18 43 -5 80 20 57 66
86 136 86 30 0 67 -7 83 -15z"/>
<path d="M2080 1180 l0 -180 128 0 128 0 29 30 28 29 -124 3 -124 3 -3 148 -3
147 -29 0 -30 0 0 -180z"/>
<path d="M2430 1253 c0 -88 4 -114 21 -151 52 -106 188 -132 281 -54 47 40 58
77 58 202 l0 110 -30 0 -30 0 0 -109 c0 -103 -2 -111 -26 -140 -14 -17 -43
-36 -64 -42 -32 -10 -44 -9 -77 7 -57 28 -73 69 -73 187 l0 97 -30 0 -30 0 0
-107z"/>
<path d="M2840 1330 l0 -30 65 0 65 0 0 -123 0 -123 30 -29 30 -29 0 152 0
152 65 0 65 0 0 30 0 30 -160 0 -160 0 0 -30z"/>
<path d="M3200 1207 l0 -153 30 -29 30 -29 0 182 0 182 -30 0 -30 0 0 -153z"/>
<path d="M3404 1341 c-100 -45 -133 -167 -71 -261 78 -117 297 -104 363 22 18
35 18 121 0 156 -19 36 -65 78 -99 91 -45 17 -147 13 -193 -8z m186 -56 c56
-29 77 -109 43 -166 -51 -86 -212 -77 -257 15 -17 36 -18 43 -5 80 20 57 66
86 136 86 30 0 67 -7 83 -15z"/>
<path d="M3760 1207 l0 -153 30 -29 29 -28 3 138 3 139 110 -137 c106 -131
112 -136 148 -137 l37 0 0 180 0 180 -30 0 -29 0 -3 -140 -3 -140 -108 140
c-107 138 -109 140 -148 140 l-39 0 0 -153z"/>
<path d="M4194 1326 c-38 -38 -43 -70 -19 -116 22 -43 43 -50 154 -50 105 0
131 -10 131 -50 0 -43 -24 -50 -168 -50 l-136 0 29 -30 c29 -30 29 -30 143
-30 64 0 123 5 135 11 63 32 76 107 28 161 -29 33 -29 33 -141 36 -106 4 -112
5 -122 28 -9 19 -8 28 7 44 16 18 31 20 130 20 104 0 113 2 133 23 12 13 22
26 22 30 0 4 -66 7 -146 7 l-146 0 -34 -34z"/>
</g>
</svg>
